<svg width="25" height="24" viewBox="0 0 25 24" fill="none" xmlns="http://www.w3.org/2000/svg">
<path d="M4.64062 1.10938C4.78732 0.937867 4.96943 0.800173 5.17443 0.705767C5.37942 0.611362 5.60244 0.562485 5.82812 0.5625H19.1719C19.3976 0.562485 19.6206 0.611362 19.8256 0.705767C20.0306 0.800173 20.2127 0.937867 20.3594 1.10938L24.4359 5.86562C24.7999 6.29036 25 6.83127 25 7.39062V7.78906C25.0001 8.56246 24.7585 9.31656 24.3091 9.94597C23.8597 10.5754 23.2248 11.0486 22.4932 11.2996C21.7617 11.5506 20.97 11.5667 20.2288 11.3457C19.4877 11.1248 18.8341 10.6778 18.3594 10.0672C18.0127 10.5137 17.5685 10.875 17.0607 11.1233C16.5529 11.3717 15.995 11.5005 15.4297 11.5C14.8644 11.5006 14.3064 11.3718 13.7986 11.1235C13.2908 10.8751 12.8466 10.5138 12.5 10.0672C12.1534 10.5138 11.7092 10.8751 11.2014 11.1235C10.6936 11.3718 10.1356 11.5006 9.57031 11.5C9.00501 11.5006 8.44707 11.3718 7.93924 11.1235C7.43142 10.8751 6.9872 10.5138 6.64062 10.0672C6.16592 10.6778 5.51232 11.1248 4.77115 11.3457C4.02999 11.5667 3.23831 11.5506 2.50676 11.2996C1.77521 11.0486 1.14035 10.5754 0.69091 9.94597C0.241472 9.31656 -8.53103e-05 8.56246 2.26008e-08 7.78906V7.39062C1.96993e-05 6.83127 0.200088 6.29036 0.564062 5.86562L4.64219 1.10781L4.64062 1.10938ZM7.42188 7.78906C7.42188 8.35886 7.64823 8.90533 8.05114 9.30824C8.45405 9.71115 9.00051 9.9375 9.57031 9.9375C10.1401 9.9375 10.6866 9.71115 11.0895 9.30824C11.4924 8.90533 11.7188 8.35886 11.7188 7.78906C11.7188 7.58186 11.8011 7.38315 11.9476 7.23664C12.0941 7.09012 12.2928 7.00781 12.5 7.00781C12.7072 7.00781 12.9059 7.09012 13.0524 7.23664C13.1989 7.38315 13.2812 7.58186 13.2812 7.78906C13.2812 8.35886 13.5076 8.90533 13.9105 9.30824C14.3134 9.71115 14.8599 9.9375 15.4297 9.9375C15.9995 9.9375 16.546 9.71115 16.9489 9.30824C17.3518 8.90533 17.5781 8.35886 17.5781 7.78906C17.5781 7.58186 17.6604 7.38315 17.8069 7.23664C17.9535 7.09012 18.1522 7.00781 18.3594 7.00781C18.5666 7.00781 18.7653 7.09012 18.9118 7.23664C19.0583 7.38315 19.1406 7.58186 19.1406 7.78906C19.1406 8.35886 19.367 8.90533 19.7699 9.30824C20.1728 9.71115 20.7193 9.9375 21.2891 9.9375C21.8589 9.9375 22.4053 9.71115 22.8082 9.30824C23.2111 8.90533 23.4375 8.35886 23.4375 7.78906V7.39062C23.4375 7.20442 23.371 7.02433 23.25 6.88281L19.1719 2.125H5.82812L1.75 6.88281C1.62898 7.02433 1.56249 7.20442 1.5625 7.39062V7.78906C1.5625 8.35886 1.78885 8.90533 2.19176 9.30824C2.59467 9.71115 3.14114 9.9375 3.71094 9.9375C4.28074 9.9375 4.8272 9.71115 5.23011 9.30824C5.63302 8.90533 5.85938 8.35886 5.85938 7.78906C5.85938 7.58186 5.94169 7.38315 6.0882 7.23664C6.23471 7.09012 6.43342 7.00781 6.64062 7.00781C6.84783 7.00781 7.04654 7.09012 7.19305 7.23664C7.33956 7.38315 7.42188 7.58186 7.42188 7.78906ZM2.34375 12.2812C2.55095 12.2812 2.74966 12.3636 2.89618 12.5101C3.04269 12.6566 3.125 12.8553 3.125 13.0625V22.4375H4.6875V14.625C4.6875 14.2106 4.85212 13.8132 5.14515 13.5201C5.43817 13.2271 5.8356 13.0625 6.25 13.0625H10.9375C11.3519 13.0625 11.7493 13.2271 12.0424 13.5201C12.3354 13.8132 12.5 14.2106 12.5 14.625V22.4375H21.875V13.0625C21.875 12.8553 21.9573 12.6566 22.1038 12.5101C22.2503 12.3636 22.449 12.2812 22.6562 12.2812C22.8635 12.2812 23.0622 12.3636 23.2087 12.5101C23.3552 12.6566 23.4375 12.8553 23.4375 13.0625V22.4375H24.2188C24.426 22.4375 24.6247 22.5198 24.7712 22.6663C24.9177 22.8128 25 23.0115 25 23.2188C25 23.426 24.9177 23.6247 24.7712 23.7712C24.6247 23.9177 24.426 24 24.2188 24H0.78125C0.57405 24 0.375336 23.9177 0.228823 23.7712C0.0823101 23.6247 2.26008e-08 23.426 2.26008e-08 23.2188C2.26008e-08 23.0115 0.0823101 22.8128 0.228823 22.6663C0.375336 22.5198 0.57405 22.4375 0.78125 22.4375H1.5625V13.0625C1.5625 12.8553 1.64481 12.6566 1.79132 12.5101C1.93784 12.3636 2.13655 12.2812 2.34375 12.2812ZM6.25 22.4375H10.9375V14.625H6.25V22.4375ZM14.0625 14.625C14.0625 14.2106 14.2271 13.8132 14.5201 13.5201C14.8132 13.2271 15.2106 13.0625 15.625 13.0625H18.75C19.1644 13.0625 19.5618 13.2271 19.8549 13.5201C20.1479 13.8132 20.3125 14.2106 20.3125 14.625V19.3125C20.3125 19.7269 20.1479 20.1243 19.8549 20.4174C19.5618 20.7104 19.1644 20.875 18.75 20.875H15.625C15.2106 20.875 14.8132 20.7104 14.5201 20.4174C14.2271 20.1243 14.0625 19.7269 14.0625 19.3125V14.625ZM18.75 14.625H15.625V19.3125H18.75V14.625Z" fill="#F82056"/>
</svg>
