<svg width="25" height="25" viewBox="0 0 25 25" fill="none" xmlns="http://www.w3.org/2000/svg">
<path d="M8.59375 15.625C8.38655 15.625 8.18784 15.7073 8.04132 15.8538C7.89481 16.0003 7.8125 16.199 7.8125 16.4062C7.8125 16.6135 7.89481 16.8122 8.04132 16.9587C8.18784 17.1052 8.38655 17.1875 8.59375 17.1875H16.4062C16.6135 17.1875 16.8122 17.1052 16.9587 16.9587C17.1052 16.8122 17.1875 16.6135 17.1875 16.4062C17.1875 16.199 17.1052 16.0003 16.9587 15.8538C16.8122 15.7073 16.6135 15.625 16.4062 15.625H8.59375ZM8.59375 18.75C8.38655 18.75 8.18784 18.8323 8.04132 18.9788C7.89481 19.1253 7.8125 19.324 7.8125 19.5312C7.8125 19.7385 7.89481 19.9372 8.04132 20.0837C8.18784 20.2302 8.38655 20.3125 8.59375 20.3125H16.4062C16.6135 20.3125 16.8122 20.2302 16.9587 20.0837C17.1052 19.9372 17.1875 19.7385 17.1875 19.5312C17.1875 19.324 17.1052 19.1253 16.9587 18.9788C16.8122 18.8323 16.6135 18.75 16.4062 18.75H8.59375Z" fill="#F82056"/>
<path d="M21.875 21.875V7.03125L14.8438 0H6.25C5.4212 0 4.62634 0.32924 4.04029 0.915291C3.45424 1.50134 3.125 2.2962 3.125 3.125V21.875C3.125 22.7038 3.45424 23.4987 4.04029 24.0847C4.62634 24.6708 5.4212 25 6.25 25H18.75C19.5788 25 20.3737 24.6708 20.9597 24.0847C21.5458 23.4987 21.875 22.7038 21.875 21.875ZM14.8438 4.6875C14.8438 5.3091 15.0907 5.90524 15.5302 6.34478C15.9698 6.78432 16.5659 7.03125 17.1875 7.03125H20.3125V21.875C20.3125 22.2894 20.1479 22.6868 19.8549 22.9799C19.5618 23.2729 19.1644 23.4375 18.75 23.4375H6.25C5.8356 23.4375 5.43817 23.2729 5.14515 22.9799C4.85212 22.6868 4.6875 22.2894 4.6875 21.875V3.125C4.6875 2.7106 4.85212 2.31317 5.14515 2.02015C5.43817 1.72712 5.8356 1.5625 6.25 1.5625H14.8438V4.6875Z" fill="#F82056"/>
</svg>
