<svg width="29" height="29" viewBox="0 0 29 29" fill="none" xmlns="http://www.w3.org/2000/svg">
<path d="M31.1918 29.6042L22.714 21.1264C24.7513 18.6807 25.7672 15.5436 25.5504 12.3679C25.3336 9.19218 23.9009 6.22228 21.5502 4.07604C19.1995 1.92979 16.1118 0.77244 12.9295 0.844748C9.74721 0.917055 6.7153 2.21345 4.4645 4.46425C2.2137 6.71506 0.9173 9.74696 0.844992 12.9293C0.772684 16.1115 1.93003 19.1992 4.07628 21.5499C6.22253 23.9006 9.19242 25.3334 12.3681 25.5502C15.5439 25.7669 18.6809 24.751 21.1267 22.7138L29.6045 31.1916L31.1918 29.6042ZM3.12712 13.2302C3.12712 11.2319 3.71966 9.27855 4.82983 7.61707C5.93999 5.9556 7.51791 4.66063 9.36404 3.89594C11.2102 3.13124 13.2416 2.93117 15.2015 3.321C17.1613 3.71084 18.9615 4.67308 20.3745 6.08605C21.7875 7.49902 22.7497 9.29926 23.1396 11.2591C23.5294 13.2189 23.3293 15.2504 22.5646 17.0965C21.7999 18.9426 20.505 20.5206 18.8435 21.6307C17.182 22.7409 15.2286 23.3334 13.2304 23.3334C10.5518 23.3305 7.98367 22.2651 6.08958 20.371C4.19549 18.4769 3.13009 15.9088 3.12712 13.2302Z" fill="#F82056"/>
</svg>
