<svg width="40" height="40" viewBox="0 0 40 40" fill="none" xmlns="http://www.w3.org/2000/svg">
<path d="M9.44414 12.7539L19.5135 22.7715L29.5829 12.7539C29.8232 12.5149 30.1084 12.3253 30.4223 12.1959C30.7363 12.0666 31.0727 12 31.4125 12C31.7523 12 32.0888 12.0666 32.4027 12.1959C32.7166 12.3253 33.0019 12.5149 33.2422 12.7539C33.4824 12.993 33.673 13.2768 33.803 13.5891C33.9331 13.9014 34 14.2361 34 14.5741C34 14.9122 33.9331 15.2469 33.803 15.5592C33.673 15.8715 33.4824 16.1553 33.2422 16.3943L21.3302 28.245C21.0901 28.4843 20.8049 28.6742 20.4909 28.8037C20.177 28.9333 19.8404 29 19.5006 29C19.1607 29 18.8241 28.9333 18.5102 28.8037C18.1962 28.6742 17.911 28.4843 17.6709 28.245L5.75895 16.3943C5.51837 16.1555 5.3275 15.8718 5.19726 15.5594C5.06703 15.2471 5 14.9123 5 14.5741C5 14.236 5.06703 13.9012 5.19726 13.5889C5.3275 13.2765 5.51837 12.9928 5.75895 12.7539C6.77108 11.7729 8.43201 11.747 9.44414 12.7539V12.7539Z" fill="white"/>
</svg>
