<svg width="24" height="30" viewBox="0 0 24 30" fill="none" xmlns="http://www.w3.org/2000/svg">
<path d="M18 6.9961C17.9997 7.78376 17.8443 8.56367 17.5427 9.29128C17.241 10.0189 16.799 10.68 16.2418 11.2367C15.6847 11.7935 15.0233 12.2351 14.2955 12.5363C13.5677 12.8375 12.7877 12.9924 12 12.9921C10.8137 12.9917 9.65417 12.6395 8.66803 11.9801C7.68188 11.3207 6.91341 10.3837 6.45981 9.28758C6.0062 8.19144 5.88782 6.9854 6.11964 5.82198C6.35146 4.65856 6.92307 3.59001 7.76219 2.75146C8.6013 1.9129 9.67023 1.342 10.8338 1.11096C11.9974 0.87991 13.2033 0.999093 14.2992 1.45343C15.395 1.90777 16.3315 2.67686 16.9903 3.66345C17.649 4.65003 18.0004 5.8098 18 6.9961V6.9961ZM22 28.9801H2V24.9881C2 23.3968 2.63214 21.8707 3.75736 20.7455C4.88258 19.6202 6.4087 18.9881 8 18.9881H16C17.5913 18.9881 19.1174 19.6202 20.2426 20.7455C21.3679 21.8707 22 23.3968 22 24.9881V28.9821V28.9801Z" stroke="#F82056" stroke-width="3" stroke-linecap="square"/>
</svg>
